<mxfile host="app.diagrams.net" agent="Mozilla/5.0 (Windows NT 10.0; Win64; x64) AppleWebKit/537.36 (KHTML, like Gecko) Chrome/135.0.0.0 Safari/537.36" version="26.2.12">
  <diagram name="Page-1" id="y7eCPDLt2BwAU94iZfWs">
    <mxGraphModel dx="2068" dy="1111" grid="1" gridSize="10" guides="1" tooltips="1" connect="1" arrows="1" fold="1" page="1" pageScale="1" pageWidth="850" pageHeight="1100" math="0" shadow="0">
      <root>
        <mxCell id="0" />
        <mxCell id="1" parent="0" />
        <mxCell id="IwbAhiJYAEG_jXNk1CjQ-1" value="START" style="ellipse;whiteSpace=wrap;html=1;" vertex="1" parent="1">
          <mxGeometry x="240" y="460" width="90" height="50" as="geometry" />
        </mxCell>
        <mxCell id="IwbAhiJYAEG_jXNk1CjQ-2" value="WRITE" style="text;html=1;align=center;verticalAlign=middle;resizable=0;points=[];autosize=1;strokeColor=none;fillColor=none;fontSize=40;" vertex="1" parent="1">
          <mxGeometry x="60" y="365" width="150" height="60" as="geometry" />
        </mxCell>
        <mxCell id="IwbAhiJYAEG_jXNk1CjQ-3" value="IDLE" style="ellipse;whiteSpace=wrap;html=1;" vertex="1" parent="1">
          <mxGeometry x="120" y="460" width="90" height="50" as="geometry" />
        </mxCell>
        <mxCell id="IwbAhiJYAEG_jXNk1CjQ-4" value="ACK_IN" style="ellipse;whiteSpace=wrap;html=1;" vertex="1" parent="1">
          <mxGeometry x="500" y="460" width="90" height="50" as="geometry" />
        </mxCell>
        <mxCell id="IwbAhiJYAEG_jXNk1CjQ-5" value="ADDR_W" style="ellipse;whiteSpace=wrap;html=1;" vertex="1" parent="1">
          <mxGeometry x="380" y="460" width="90" height="50" as="geometry" />
        </mxCell>
        <mxCell id="IwbAhiJYAEG_jXNk1CjQ-10" value="STOP" style="ellipse;whiteSpace=wrap;html=1;" vertex="1" parent="1">
          <mxGeometry x="500" y="550" width="90" height="50" as="geometry" />
        </mxCell>
        <mxCell id="IwbAhiJYAEG_jXNk1CjQ-11" value="DATA_W" style="ellipse;whiteSpace=wrap;html=1;" vertex="1" parent="1">
          <mxGeometry x="640" y="460" width="90" height="50" as="geometry" />
        </mxCell>
        <mxCell id="IwbAhiJYAEG_jXNk1CjQ-12" value="IDLE" style="ellipse;whiteSpace=wrap;html=1;" vertex="1" parent="1">
          <mxGeometry x="240" y="740" width="90" height="50" as="geometry" />
        </mxCell>
        <mxCell id="IwbAhiJYAEG_jXNk1CjQ-13" value="IDLE" style="ellipse;whiteSpace=wrap;html=1;" vertex="1" parent="1">
          <mxGeometry x="120" y="740" width="90" height="50" as="geometry" />
        </mxCell>
        <mxCell id="IwbAhiJYAEG_jXNk1CjQ-14" value="READ" style="text;html=1;align=center;verticalAlign=middle;resizable=0;points=[];autosize=1;strokeColor=none;fillColor=none;fontSize=40;" vertex="1" parent="1">
          <mxGeometry x="70" y="650" width="130" height="60" as="geometry" />
        </mxCell>
      </root>
    </mxGraphModel>
  </diagram>
</mxfile>
